<?xml version="1.0" encoding="iso-8859-1"?>
<!-- Generator: Adobe Illustrator 19.0.0, SVG Export Plug-In . SVG Version: 6.00 Build 0)  -->
<svg xmlns="http://www.w3.org/2000/svg" xmlns:xlink="http://www.w3.org/1999/xlink" version="1.1" id="Layer_1" x="0px" y="0px" viewBox="0 0 513.067 513.067" style="enable-background:new 0 0 513.067 513.067;" xml:space="preserve">
<polygon style="fill:#FFD15C;" points="326.933,163.2 278.933,194.133 304.533,244.267 248,247.467 244.8,304 194.667,278.4   163.733,326.4 132.8,278.4 81.6,304 78.4,247.467 21.867,244.267 47.467,194.133 0.533,163.2 47.467,132.267 21.867,81.067   78.4,77.867 81.6,21.333 132.8,46.933 163.733,0 194.667,46.933 244.8,21.333 248,77.867 304.533,81.067 278.933,132.267 "/>
<circle style="fill:#F7B64C;" cx="163.733" cy="163.2" r="84.267"/>
<path style="fill:#E8EAE9;" d="M443.2,363.733c6.4-8.533,9.6-19.2,9.6-30.933c0-29.867-24.533-55.467-55.467-55.467  c-14.933,0-27.733,5.333-37.333,14.933c-13.867-56.533-65.067-99.2-125.867-99.2C162.667,193.067,104,250.667,104,323.2l0,0  c-2.133,0-4.267,0-6.4,0c-52.267,0-94.933,42.667-94.933,94.933s42.667,94.933,94.933,94.933c2.133,0,4.267,0,6.4,0l0,0h333.867  c41.6,0,74.667-33.067,74.667-74.667C512.533,397.867,481.6,365.867,443.2,363.733z"/>
<g>
</g>
<g>
</g>
<g>
</g>
<g>
</g>
<g>
</g>
<g>
</g>
<g>
</g>
<g>
</g>
<g>
</g>
<g>
</g>
<g>
</g>
<g>
</g>
<g>
</g>
<g>
</g>
<g>
</g>
</svg>
